<svg width="36" height="36" viewBox="0 0 36 36" fill="none" xmlns="http://www.w3.org/2000/svg">
<g clip-path="url(#clip0_2_26)">
<circle cx="18" cy="18" r="18" fill="#DB2878"/>
<path d="M30 18C30 24.6274 24.6274 30 18 30C11.3726 30 6 24.6274 6 18C6 11.3726 11.3726 6 18 6C24.6274 6 30 11.3726 30 18Z" fill="#EC4899"/>
<path d="M24 18C24 21.3137 21.3137 24 18 24C14.6863 24 12 21.3137 12 18C12 14.6863 14.6863 12 18 12C21.3137 12 24 14.6863 24 18Z" fill="#FBFBFB"/>
<g style="mix-blend-mode:screen">
<circle cx="18" cy="18" r="18" fill="url(#paint0_linear_2_26)"/>
</g>
</g>
<defs>
<linearGradient id="paint0_linear_2_26" x1="18" y1="0" x2="18" y2="36" gradientUnits="userSpaceOnUse">
<stop stop-color="#FF0273"/>
<stop offset="1" stop-color="#EBFF02" stop-opacity="0"/>
</linearGradient>
<clipPath id="clip0_2_26">
<rect width="36" height="36" fill="white"/>
</clipPath>
</defs>
</svg>
